HIERARCHY
ROOT Hips
{
	OFFSET 0.000000 0.000000 0.000000
	CHANNELS 6 Xposition Yposition Zposition Zrotation Yrotation Xrotation 
	JOINT LowerBack
	{
		OFFSET 0.000000 0.000000 0.000000
		CHANNELS 3 Zrotation Yrotation Xrotation
		JOINT Spine
		{
			OFFSET 0.028270 2.035590 -0.193380
			CHANNELS 3 Zrotation Yrotation Xrotation
			JOINT Spine1
			{
				OFFSET 0.056720 2.048850 -0.042750
				CHANNELS 3 Zrotation Yrotation Xrotation
				JOINT Neck
				{
					OFFSET 0.000000 0.000000 0.000000
					CHANNELS 3 Zrotation Yrotation Xrotation
					JOINT Neck1
					{
						OFFSET -0.054170 1.746240 0.172020
						CHANNELS 3 Zrotation Yrotation Xrotation
						JOINT Head
						{
							OFFSET 0.104070 1.761360 -0.123970
							CHANNELS 3 Zrotation Yrotation Xrotation
							End Site
							{
								OFFSET 0.000000 0.000000 0.000000
							}
						}
					}
				}
				JOINT LeftShoulder
				{
					OFFSET 0.000000 0.000000 0.000000
					CHANNELS 3 Zrotation Yrotation Xrotation
					JOINT LeftArm
					{
						OFFSET 3.362410 1.200890 -0.311210
						CHANNELS 3 Zrotation Yrotation Xrotation
						JOINT LeftForeArm
						{
							OFFSET 4.983000 -0.000000 -0.000000
							CHANNELS 3 Zrotation Yrotation Xrotation
							JOINT LeftHand
							{
								OFFSET 3.483560 -0.000000 -0.000000
								CHANNELS 3 Zrotation Yrotation Xrotation
								JOINT LeftFingerBase
								{
									OFFSET 0.000000 0.000000 0.000000
									CHANNELS 3 Zrotation Yrotation Xrotation
									JOINT LeftHandIndex1
									{
										OFFSET 0.715260 -0.000000 -0.000000
										CHANNELS 3 Zrotation Yrotation Xrotation
										End Site
										{
											OFFSET 0.000000 0.000000 0.000000
										}
									}
								}
								JOINT LThumb
								{
									OFFSET 0.000000 0.000000 0.000000
									CHANNELS 3 Zrotation Yrotation Xrotation
									End Site
									{
										OFFSET 0.000000 0.000000 0.000000
									}
								}
							}
						}
					}
				}
				JOINT RightShoulder
				{
					OFFSET 0.000000 0.000000 0.000000
					CHANNELS 3 Zrotation Yrotation Xrotation
					JOINT RightArm
					{
						OFFSET -3.136600 1.374050 -0.404650
						CHANNELS 3 Zrotation Yrotation Xrotation
						JOINT RightForeArm
						{
							OFFSET -5.241900 -0.000000 -0.000000
							CHANNELS 3 Zrotation Yrotation Xrotation
							JOINT RightHand
							{
								OFFSET -3.444170 -0.000000 -0.000000
								CHANNELS 3 Zrotation Yrotation Xrotation
								JOINT RightFingerBase
								{
									OFFSET 0.000000 0.000000 0.000000
									CHANNELS 3 Zrotation Yrotation Xrotation
									JOINT RightHandIndex1
									{
										OFFSET -0.622530 -0.000000 -0.000000
										CHANNELS 3 Zrotation Yrotation Xrotation
										End Site
										{
											OFFSET 0.000000 0.000000 0.000000
										}
									}
								}
								JOINT RThumb
								{
									OFFSET 0.000000 0.000000 0.000000
									CHANNELS 3 Zrotation Yrotation Xrotation
									End Site
									{
										OFFSET 0.000000 0.000000 0.000000
									}
								}
							}
						}
					}
				}
			}
		}
	}
}
}
MOTION
Frames: 6
Frame Time: 0.008333
1.746713 16.252050 2.104134 -79.913880 -78.106258 123.197636 7.173266 -2.337088 5.996833 0.674538 -2.374899 -2.297264 -6.442738 -2.228921 -2.256984 9.108978 -12.042577 -5.721275 -1.800974 -0.128146 -0.033346 0.000000 0.000000 0.000000 8.185405 1.874081 1.075990 -70.127023 10.952132 10.084433 -179.276640 -68.020102 179.954165 6.389379 0.429476 0.001426 -0.125321 0.439683 0.000000 0.000000 0.000000 0.000000 0.000000 0.000000 0.000000 -0.026242 -6.625922 0.429591 71.091872 0.670554 25.156294 179.407513 63.291850 179.942761 -6.995756 5.839063 -0.403594 0.159290 -0.632881 0.000000 0.000000 0.000000 0.000000 0.000000 0.000000 0.000000 
1.748818 16.202422 2.097838 -80.647582 -78.082533 123.979470 7.034111 -2.266785 6.000707 0.633218 -2.299435 -2.315763 -6.475543 -2.156570 -2.358248 9.140189 -11.893847 -5.787577 -1.815535 -0.128035 -0.056078 0.000000 0.000000 0.000000 8.068201 1.758697 1.130153 -70.127829 10.816029 10.068454 -179.294140 -68.290650 179.952769 6.564359 0.462957 0.003433 -0.128955 0.439459 0.000000 0.000000 0.000000 0.000000 0.000000 0.000000 0.000000 0.135980 -6.390069 0.483445 71.430129 0.620726 25.096029 179.451895 63.716824 179.939879 -7.317715 5.721365 -0.414176 0.164829 -0.629849 -0.000000 0.000000 0.000000 0.000000 0.000000 0.000000 0.000000 
1.750065 16.156309 2.092542 -81.409968 -78.027957 124.751270 6.915138 -2.191662 5.998892 0.597374 -2.218977 -2.337386 -6.501560 -2.079812 -2.458366 9.153162 -11.735826 -5.854666 -1.832431 -0.128102 -0.078344 0.000000 0.000000 0.000000 7.926085 1.658418 1.182793 -70.165252 10.663034 10.025548 -179.316707 -68.614306 179.950897 6.803510 0.514305 0.006645 -0.133926 0.438699 0.000000 0.000000 0.000000 0.000000 0.000000 0.000000 0.000000 0.301654 -6.151843 0.534879 71.750798 0.614632 25.080433 179.497485 64.204701 179.936765 -7.678000 5.593745 -0.425558 0.171342 -0.626052 0.000000 0.000000 0.000000 0.000000 0.000000 0.000000 0.000000 
1.750352 16.114739 2.088380 -82.106505 -77.954245 125.400604 6.816763 -2.119414 6.005925 0.567708 -2.140950 -2.357161 -6.520060 -2.005776 -2.553933 9.150467 -11.571380 -5.918139 -1.851968 -0.128424 -0.098945 0.000000 0.000000 0.000000 7.764212 1.575290 1.231740 -70.247049 10.495049 9.959309 -179.344579 -68.987212 179.948532 7.109217 0.582944 0.011258 -0.140153 0.437426 0.000000 0.000000 0.000000 0.000000 0.000000 0.000000 0.000000 0.472432 -5.920801 0.581597 72.048929 0.654486 25.112084 179.542610 64.748756 179.933572 -8.058997 5.466491 -0.437240 0.178342 -0.621695 -0.000000 0.000000 0.000000 0.000000 0.000000 0.000000 0.000000 
1.749219 16.078446 2.085283 -82.657823 -77.875618 125.842712 6.736348 -2.056384 6.027567 0.544172 -2.071788 -2.371800 -6.530786 -1.940599 -2.640749 9.136206 -11.405709 -5.974771 -1.873801 -0.129027 -0.116892 0.000000 0.000000 0.000000 7.589233 1.511386 1.274552 -70.377241 10.316308 9.875808 -179.377401 -69.401904 179.945701 7.477956 0.666725 0.017472 -0.147457 0.435690 0.000000 0.000000 0.000000 0.000000 0.000000 0.000000 0.000000 0.648752 -5.707356 0.621674 72.322626 0.737529 25.192818 179.585450 65.339642 179.930488 -8.439270 5.349674 -0.448726 0.185275 -0.617003 -0.000000 0.000000 0.000000 0.000000 0.000000 0.000000 0.000000 
1.746425 16.048015 2.082872 -83.016112 -77.805481 126.031245 6.667761 -2.006890 6.061754 0.525747 -2.016099 -2.379990 -6.534354 -1.888610 -2.714555 9.116251 -11.245681 -6.022815 -1.897216 -0.129900 -0.131464 0.000000 0.000000 0.000000 7.411033 1.468893 1.308741 -70.556205 10.131389 9.783824 -179.414222 -69.846256 179.942487 7.899320 0.761167 0.025186 -0.155548 0.433609 0.000000 0.000000 0.000000 0.000000 0.000000 0.000000 0.000000 0.830518 -5.521370 0.653710 72.573765 0.857517 25.322581 179.624247 65.964902 179.927711 -8.795580 5.251661 -0.459615 0.191582 -0.612203 0.000000 0.000000 0.000000 0.000000 0.000000 0.000000 0.000000 
